<?xml version="1.0" standalone="no"?><!DOCTYPE svg PUBLIC "-//W3C//DTD SVG 1.1//EN" "http://www.w3.org/Graphics/SVG/1.1/DTD/svg11.dtd"><svg t="1716536084474" class="icon" viewBox="0 0 1024 1024" version="1.1" xmlns="http://www.w3.org/2000/svg" p-id="8894" xmlns:xlink="http://www.w3.org/1999/xlink" width="200" height="200"><path d="M467.2 294.4c19.2 0 32 12.8 32 32s-12.8 38.4-32 38.4H204.8c-19.2 0-32-12.8-32-32s12.8-32 32-32h262.4z m524.8 473.6v147.2c0 38.4-32 70.4-70.4 70.4H102.4c-38.4 0-70.4-32-70.4-70.4V102.4C32 64 64 32 102.4 32h326.4c19.2 0 32 12.8 32 32s-12.8 38.4-32 38.4H102.4v812.8h812.8V768c0-134.4-108.8-243.2-243.2-243.2-121.6 0-224 89.6-236.8 211.2h281.6c19.2 0 32 12.8 32 32s-12.8 32-32 32h-512c-19.2 0-32-12.8-32-32s12.8-32 32-32h166.4c12.8-115.2 89.6-217.6 192-256-38.4-32-57.6-76.8-57.6-128 0-96 76.8-179.2 172.8-179.2s172.8 83.2 172.8 179.2c0 51.2-25.6 102.4-57.6 134.4 115.2 44.8 198.4 153.6 198.4 281.6zM576 352c0 57.6 44.8 108.8 102.4 108.8s102.4-51.2 102.4-108.8-44.8-108.8-102.4-108.8S576 294.4 576 352zM204.8 499.2c-19.2 0-32 12.8-32 32s12.8 32 32 32h147.2c19.2 6.4 32-6.4 32-25.6s-12.8-38.4-32-38.4H204.8z" fill="#606266" p-id="8895"></path></svg>