<?xml version="1.0" standalone="no"?><!DOCTYPE svg PUBLIC "-//W3C//DTD SVG 1.1//EN" "http://www.w3.org/Graphics/SVG/1.1/DTD/svg11.dtd"><svg t="1716535915555" class="icon" viewBox="0 0 1024 1024" version="1.1" xmlns="http://www.w3.org/2000/svg" p-id="5783" xmlns:xlink="http://www.w3.org/1999/xlink" width="200" height="200"><path d="M312.888889 142.222222h398.222222V28.444444a28.444444 28.444444 0 0 1 56.888889 0v113.777778h199.111111a56.888889 56.888889 0 0 1 56.888889 56.888889v768a56.888889 56.888889 0 0 1-56.888889 56.888889H56.888889a56.888889 56.888889 0 0 1-56.888889-56.888889V199.111111a56.888889 56.888889 0 0 1 56.888889-56.888889h199.111111V28.444444a28.444444 28.444444 0 1 1 56.888889 0v113.777778zM56.888889 199.111111v768h910.222222V199.111111H56.888889z m0 170.666667h910.222222v56.888889H56.888889v-56.888889z" fill="#4D4A49" p-id="5784"></path><path d="M381.155556 634.254222a28.444444 28.444444 0 1 0-44.487112 35.441778l122.311112 153.543111a28.444444 28.444444 0 0 0 43.52 1.137778l226.702222-256a28.444444 28.444444 0 0 0-42.581334-37.717333l-204.231111 230.656-101.233777-127.061334z" fill="#F27233" p-id="5785"></path></svg>