<?xml version="1.0" standalone="no"?><!DOCTYPE svg PUBLIC "-//W3C//DTD SVG 1.1//EN" "http://www.w3.org/Graphics/SVG/1.1/DTD/svg11.dtd"><svg t="1716775811452" class="icon" viewBox="0 0 1269 1024" version="1.1" xmlns="http://www.w3.org/2000/svg" p-id="2638" xmlns:xlink="http://www.w3.org/1999/xlink" width="247.8515625" height="200"><path d="M460.890058 60.129467a193.916561 193.916561 0 1 1-193.91656 193.916561A193.916561 193.916561 0 0 1 460.890058 60.129467m0-60.129166a254.045727 254.045727 0 1 0 253.745082 254.045727A254.045727 254.045727 0 0 0 460.890058 0.000301z" fill="#231815" p-id="2639"></path><path d="M860.448367 1024a30.064583 30.064583 0 0 1-30.064583-30.064583 385.127309 385.127309 0 1 0-770.254618 0 30.064583 30.064583 0 0 1-60.129166 0 445.256475 445.256475 0 1 1 890.512951 0 30.064583 30.064583 0 0 1-30.064584 30.064583zM1239.863406 245.92859H828.579909a30.064583 30.064583 0 1 1 0-60.129166h411.283497a30.064583 30.064583 0 0 1 0 60.129166zM1239.863406 481.03363H890.512951a30.064583 30.064583 0 1 1 0-60.129166h349.350455a30.064583 30.064583 0 0 1 0 60.129166zM1239.863406 718.844482H962.066658a30.064583 30.064583 0 1 1 0-60.129166h277.496102a30.064583 30.064583 0 0 1 0 60.129166z" fill="#231815" p-id="2640"></path></svg>