<svg>





    <path d="M15.416,14.5L11.314,14.5C11.03786,14.5,10.814,14.2761,10.814,14C10.814,13.7239,11.03786,13.5,11.314,13.5L15.416,13.5C15.6921,13.5,15.916,13.7239,15.916,14C15.916,14.2761,15.6921,14.5,15.416,14.5ZM8.972999999999999,10.163C6.447,10.163,4.391,8.108,4.391,5.581C4.391,3.054,6.446,1,8.972999999999999,1C11.5,1,13.554,3.055,13.554,5.582C13.554,8.109,11.499,10.163,8.972999999999999,10.163ZM8.972999999999999,2C6.998,2,5.391,3.606,5.391,5.582C5.391,7.558,6.998,9.164,8.972999999999999,9.164C10.948,9.164,12.554,7.558,12.554,5.582C12.554,3.606,10.947,2,8.972999999999999,2ZM12.645,10.397C12.5513,10.39695,12.4595,10.37062,12.38,10.321C11.9076,10.02569,11.39862,9.79339,10.866,9.63C10.60238,9.54843,10.45468,9.2687,10.536,9.005C10.61527,8.739429999999999,10.89678,8.590340000000001,11.161,8.674C11.7759,8.863299999999999,12.3635,9.13189,12.909,9.473C13.098,9.59112,13.186,9.82007,13.1248,10.03436C13.0635,10.24866,12.8679,10.39656,12.645,10.397ZM2,16.286C1.723858,16.286,1.5,16.0621,1.5,15.786C1.5,12.497,3.62,9.639,6.776,8.674C7.04296,8.58413,7.33143,8.73241,7.41372,9.00181C7.496,9.27121,7.33962,9.55537,7.068,9.63C4.35092,10.44516,2.492761,12.9493,2.5,15.786C2.5,16.0621,2.276142,16.286,2,16.286ZM13.5,17C11.846,17,10.5,15.654,10.5,14C10.5,12.346,11.846,11,13.5,11C15.154,11,16.5,12.346,16.5,14C16.5,15.654,15.154,17,13.5,17ZM13.5,12C12.397,12,11.5,12.897,11.5,14C11.5,15.103,12.397,16,13.5,16C14.603,16,15.5,15.103,15.5,14C15.5,12.897,14.603,12,13.5,12Z" fill="#333333" fill-opacity="1"/>

</svg>