<?xml version="1.0" standalone="no"?><!DOCTYPE svg PUBLIC "-//W3C//DTD SVG 1.1//EN" "http://www.w3.org/Graphics/SVG/1.1/DTD/svg11.dtd"><svg t="1718269553965" class="icon" viewBox="0 0 1024 1024" version="1.1" xmlns="http://www.w3.org/2000/svg" p-id="13197" xmlns:xlink="http://www.w3.org/1999/xlink" width="200" height="200"><path d="M274.093 113.24c17.056 0 31.476 5.933 43.37 17.771 11.837 11.865 17.77 26.326 17.77 43.382v104c0 17.043-5.933 31.504-17.77 43.369-11.894 11.865-26.313 17.797-43.37 17.797H170.067c-17.03 0-31.476-5.932-43.341-17.797s-17.798-26.326-17.798-43.37V174.395c0-17.056 5.933-31.517 17.798-43.382 11.865-11.838 26.312-17.77 43.34-17.77h104.027v-0.001z m288.378 0c17.028 0 31.49 5.933 43.34 17.771 11.88 11.865 17.797 26.326 17.797 43.382v104c0 17.043-5.918 31.504-17.797 43.369-11.851 11.865-26.312 17.797-43.34 17.797H456.604c-17.015 0-31.476-5.932-43.34-17.797s-17.798-26.326-17.798-43.37V174.395c0-17.056 5.932-31.517 17.797-43.382 11.865-11.838 26.326-17.77 43.341-17.77h105.867v-0.001z m284.697 0c17.056 0 31.516 5.933 43.37 17.771 11.864 11.865 17.797 26.326 17.797 43.382v104c0 17.043-5.933 31.504-17.798 43.369-11.853 11.865-26.312 17.797-43.369 17.797h-105.84c-17.03 0-31.476-5.932-43.341-17.797s-17.798-26.326-17.798-43.37V174.395c0-17.056 5.933-31.517 17.798-43.382 11.865-11.838 26.312-17.77 43.34-17.77h105.841v-0.001zM274.093 399.794c17.056 0 31.476 5.932 43.37 17.77 11.837 11.865 17.77 26.312 17.77 43.34v104.054c0 17.015-5.933 31.476-17.77 43.341-11.894 11.865-26.313 17.798-43.37 17.798H170.067c-17.03 0-31.476-5.933-43.341-17.798s-17.798-26.326-17.798-43.34V460.902c0-17.028 5.933-31.475 17.798-43.34 11.865-11.838 26.312-17.77 43.34-17.77h104.027z m288.378 0c17.028 0 31.49 5.932 43.34 17.77 11.88 11.865 17.797 26.312 17.797 43.34v104.054c0 17.015-5.918 31.476-17.797 43.341-11.851 11.865-26.312 17.798-43.34 17.798H456.604c-17.015 0-31.476-5.933-43.34-17.798s-17.798-26.326-17.798-43.34V460.902c0-17.028 5.932-31.475 17.797-43.34 11.865-11.838 26.326-17.77 43.341-17.77h105.867z m284.697 0c17.056 0 31.516 5.932 43.37 17.77 11.864 11.865 17.797 26.312 17.797 43.34v104.054c0 17.015-5.933 31.476-17.798 43.341-11.853 11.865-26.312 17.798-43.369 17.798h-105.84c-17.03 0-31.476-5.933-43.341-17.798s-17.798-26.326-17.798-43.34V460.902c0-17.028 5.933-31.475 17.798-43.34 11.865-11.838 26.312-17.77 43.34-17.77h105.841zM274.093 686.329c17.056 0 31.476 5.933 43.37 17.784 11.837 11.88 17.77 26.3 17.77 43.355v104.027c0 17.015-5.933 31.476-17.77 43.34-11.894 11.866-26.313 17.798-43.37 17.798H170.067c-17.03 0-31.476-5.932-43.341-17.797s-17.798-26.326-17.798-43.341V747.468c0-17.056 5.933-31.475 17.798-43.355 11.865-11.851 26.312-17.784 43.34-17.784h104.027z m288.378 0c17.028 0 31.49 5.933 43.34 17.784 11.88 11.88 17.797 26.3 17.797 43.355v104.027c0 17.015-5.918 31.476-17.797 43.34-11.851 11.866-26.312 17.798-43.34 17.798H456.604c-17.015 0-31.476-5.932-43.34-17.797s-17.798-26.326-17.798-43.341V747.468c0-17.056 5.932-31.475 17.797-43.355 11.865-11.851 26.326-17.784 43.341-17.784h105.867z m284.697 0c17.056 0 31.516 5.933 43.37 17.784 11.864 11.88 17.797 26.3 17.797 43.355v104.027c0 17.015-5.933 31.476-17.798 43.34-11.853 11.866-26.312 17.798-43.369 17.798h-105.84c-17.03 0-31.476-5.932-43.341-17.797s-17.798-26.326-17.798-43.341V747.468c0-17.056 5.933-31.475 17.798-43.355 11.865-11.851 26.312-17.784 43.34-17.784h105.841z m0 0" fill="#1296db" p-id="13198"></path></svg>