<svg>
    <path d="M13.996553515625,13.579153515625L13.600653515625,13.579153515625L13.600653515625,9.062953515625C13.600653515625,8.820703515625,13.481553515625,8.494413515625,13.197353515625,8.373293515625L9.601983515625,5.980463515625L9.601983515625,2.233018515625L9.563113515625,2.148972515625C9.400343515625,1.741104515625,9.043243515625,1.535934115625,8.603533515625,1.617507915625L2.9651235156249998,3.325613515625C2.644453515625,3.446733515625,2.4063825156250003,3.773033515625,2.4063825156250003,4.138873515625L2.4063825156250003,13.579153515625L2.003117515625,13.579153515625C1.757758515625,13.579153515625,1.599853515625,13.784353515625,1.599853515625,13.989553515625C1.599853515625,14.239153515625,1.762616515625,14.399853515625,2.003117515625,14.399853515625L13.996553515625,14.399853515625C14.241953515625,14.399853515625,14.399853515625,14.234253515625,14.399853515625,13.989553515625C14.397453515625,13.739853515625,14.234653515625,13.579153515625,13.996553515625,13.579153515625ZM12.796553515625,9.018463515625001L12.796553515625,13.579153515625L9.601983515625,13.579153515625L9.601983515625,6.912383515625L12.796553515625,9.018463515625001ZM3.195903515625,4.138873515625L8.790593515625,2.4307725156249997L8.790593515625,13.579153515625L3.195903515625,13.579153515625L3.195903515625,4.138873515625ZM7.194543515625,5.399563515625L4.799243515625,5.399563515625C4.5538835156249995,5.399563515625,4.395983515625,5.560233515625,4.395983515625,5.809903515625C4.395983515625,6.059563515625,4.558743515625,6.220243515625,4.799243515625,6.220243515625L7.194543515625,6.220243515625C7.439903515625,6.220243515625,7.597803515625,6.059563515625,7.597803515625,5.809903515625C7.597803515625,5.557763515625,7.432613515625,5.399563515625,7.194543515625,5.399563515625ZM7.194543515625,7.834413515625L4.799243515625,7.834413515625C4.5538835156249995,7.834413515625,4.395983515625,8.000033515624999,4.395983515625,8.244753515625L4.395983515625,8.249693515625001C4.395983515625,8.499363515625,4.558743515625,8.660033515624999,4.799243515625,8.660033515624999L7.194543515625,8.660033515624999C7.439903515625,8.660033515624999,7.597803515625,8.494413515625,7.597803515625,8.249693515625001L7.597803515625,8.247223515624999L7.597803515625,8.244753515625C7.597803515625,7.995083515625,7.432613515625,7.834413515625,7.194543515625,7.834413515625ZM7.194543515625,10.279143515625L4.799243515625,10.279143515625C4.5538835156249995,10.279143515625,4.395983515625,10.439823515625,4.395983515625,10.689483515625L4.395983515625,10.694433515625C4.395983515625,10.944093515625,4.558743515625,11.104773515625,4.799243515625,11.104773515625L7.194543515625,11.104773515625C7.439903515625,11.104773515625,7.597803515625,10.944093515625,7.597803515625,10.694433515625L7.597803515625,10.691963515625L7.597803515625,10.689483515625C7.597803515625,10.439823515625,7.432613515625,10.279153515625,7.194543515625,10.279143515625ZM10.393933515625,10.694433515625C10.393933515625,10.944093515625,10.556693515625,11.104773515625,10.797193515625,11.104773515625L11.596443515625,11.104773515625C11.841753515625,11.104773515625,11.999653515625,10.944093515625,11.999653515625,10.694433515625L11.999653515625,10.691963515625L11.999653515625,10.689483515625C11.999653515625,10.439823515625,11.836953515625,10.279153515625,11.596443515625,10.279153515625L10.797193515625,10.279153515625C10.551833515625,10.279153515625,10.393933515625,10.439823515625,10.393933515625,10.689483515625L10.393933515625,10.694433515625Z" fill="#3B81F4" fill-opacity="1"/>

</svg>
