<?xml version="1.0" standalone="no"?><!DOCTYPE svg PUBLIC "-//W3C//DTD SVG 1.1//EN" "http://www.w3.org/Graphics/SVG/1.1/DTD/svg11.dtd"><svg t="1716536027927" class="icon" viewBox="0 0 1024 1024" version="1.1" xmlns="http://www.w3.org/2000/svg" p-id="7886" xmlns:xlink="http://www.w3.org/1999/xlink" width="200" height="200"><path d="M870.4 143.36C865.28 66.56 798.72 0 721.92 0H291.84C215.04 0 153.6 66.56 153.6 148.48v732.16C153.6 957.44 220.16 1024 296.96 1024h430.08c76.8 0 143.36-66.56 143.36-148.48V143.36z m-87.04 737.28c0 10.24-5.12 25.6-20.48 40.96-15.36 15.36-30.72 20.48-40.96 20.48H291.84c-10.24 0-25.6-10.24-40.96-20.48-15.36-15.36-20.48-30.72-20.48-40.96V148.48c0-10.24 5.12-25.6 20.48-40.96 15.36-15.36 30.72-20.48 40.96-20.48h430.08c10.24 0 25.6 10.24 40.96 20.48 15.36 15.36 20.48 30.72 20.48 40.96v732.16z" fill="#333333" p-id="7887"></path><path d="M640 435.2H716.8v35.84h-76.8zM599.04 814.08H419.84c-10.24 0-15.36 10.24-15.36 20.48s10.24 20.48 15.36 20.48h174.08c10.24 0 15.36-10.24 15.36-20.48 5.12-10.24-5.12-20.48-10.24-20.48zM599.04 532.48h51.2v-35.84H563.2v87.04h35.84zM491.52 578.56h35.84v76.8h-35.84zM716.8 256h-153.6v158.72h153.6V256z m-35.84 117.76h-81.92V291.84h81.92v81.92z" fill="#333333" p-id="7888"></path><path d="M680.96 619.52H563.2v35.84h153.6V496.64h-35.84zM307.2 435.2h76.8v35.84H307.2zM460.8 496.64H307.2v158.72h153.6V496.64zM424.96 614.4H343.04v-81.92h81.92V614.4zM460.8 256H307.2v158.72h153.6V256z m-35.84 117.76H343.04V291.84h81.92v81.92zM496.64 256h35.84v76.8h-35.84z" fill="#333333" p-id="7889"></path><path d="M440.32 471.04h51.2v56.32h35.84v-153.6h-35.84v61.44h-51.2z" fill="#333333" p-id="7890"></path></svg>