<svg>

        <path d="M8.11059,10.82085C8.11059,10.82085,9.06501,10.82085,9.06501,10.82085C10.12161,10.82085,11.1155,11.21836,11.861,11.94028C12.6041,12.6576,13.0104,13.6103,13.0104,14.6247C13.0104,14.6247,13.0104,14.7663,13.0104,14.7663C12.957,14.7892,12.8781,14.8189,12.7596,14.8486C12.5321,14.908,12.2279,14.9537,11.8563,14.9879C11.0853,15.0565,10.09376,15.0633,9.06501,15.0633C9.06501,15.0633,5.90217,15.0633,5.90217,15.0633C4.86182,15.0633,3.87953,15.0633,3.11089,14.9994C2.73933,14.9674,2.43511,14.924,2.20987,14.8669C2.09143,14.8371,2.0101500000000003,14.8074,1.956757,14.7846C1.956757,14.7846,1.956757,14.627,1.956757,14.627C1.956757,13.6126,2.36545,12.6599,3.10623,11.94257C3.85398,11.22065,4.84556,10.82313,5.90217,10.82313C5.90217,10.82313,8.11059,10.82313,8.11059,10.82313M9.0627,9.881879999999999C9.0627,9.881879999999999,5.90217,9.881879999999999,5.90217,9.881879999999999C3.19449,9.881879999999999,1,12.0065,1,14.6247C1,14.6247,1,14.9285,1,14.9285C1,16,3.19449,16,5.90217,16C5.90217,16,9.0627,16,9.0627,16C11.7704,16,13.9625,15.9612,13.9625,14.9285C13.9625,14.9285,13.9625,14.6247,13.9625,14.6247C13.9649,12.0065,11.7704,9.88187,9.0627,9.88187C9.0627,9.88187,9.0627,9.881879999999999,9.0627,9.881879999999999ZM7.32335,2.938961C8.085049999999999,2.938961,8.80028,3.22454,9.33671,3.74315C9.8685,4.25945,10.16342,4.94256,10.16342,5.66906C10.16342,6.39555,9.8685,7.07866,9.33671,7.59497C8.80029,8.11357,8.08272,8.401440000000001,7.32335,8.401440000000001C6.56168,8.401440000000001,5.84644,8.11357,5.31001,7.59497C4.778230000000001,7.07866,4.4833099999999995,6.39555,4.4833099999999995,5.66906C4.4833099999999995,4.94256,4.778230000000001,4.25945,5.31001,3.74315C5.84877,3.22454,6.56401,2.938961,7.32335,2.938961ZM7.32335,2C5.22873,2,3.5312,3.64262,3.5312,5.67135C3.5312,7.70007,5.22873,9.34271,7.32336,9.34271C9.41799,9.34271,11.1155,7.70007,11.1155,5.67135C11.1202,3.64262,9.41799,2,7.32336,2C7.32336,2,7.32335,2,7.32335,2ZM12.9919,4.64099C12.9919,4.64099,16.4101,4.64099,16.4101,4.64099C16.735300000000002,4.64099,16.997700000000002,4.919700000000001,16.997700000000002,5.2646999999999995C16.997700000000002,5.6096699999999995,16.735300000000002,5.88837,16.4101,5.88837C16.4101,5.88837,12.9919,5.88837,12.9919,5.88837C12.6668,5.88837,12.4043,5.6096699999999995,12.4043,5.2646999999999995C12.4043,4.922000000000001,12.6668,4.64099,12.9919,4.64099C12.9919,4.64099,12.9919,4.64099,12.9919,4.64099ZM12.9919,7.76175C12.9919,7.76175,16.4101,7.76175,16.4101,7.76175C16.735300000000002,7.76175,16.997700000000002,8.04047,16.997700000000002,8.38544C16.997700000000002,8.730419999999999,16.735300000000002,9.009129999999999,16.4101,9.009129999999999C16.4101,9.009129999999999,12.9919,9.009129999999999,12.9919,9.009129999999999C12.6668,9.009129999999999,12.4043,8.730419999999999,12.4043,8.38544C12.4043,8.04047,12.6668,7.76175,12.9919,7.76175C12.9919,7.76175,12.9919,7.76175,12.9919,7.76175ZM14.5454,10.88022C14.5454,10.88022,16.4125,10.88022,16.4125,10.88022C16.7376,10.88022,17,11.15896,17,11.50393C17,11.84891,16.7376,12.1276,16.4125,12.1276C16.4125,12.1276,14.5454,12.1276,14.5454,12.1276C14.2203,12.1276,13.9579,11.84891,13.9579,11.50393C13.9556,11.16124,14.2203,10.88022,14.5454,10.88022C14.5454,10.88022,14.5454,10.88022,14.5454,10.88022Z" fill="#333333" fill-opacity="1"/>
   </svg>