<?xml version="1.0" standalone="no"?><!DOCTYPE svg PUBLIC "-//W3C//DTD SVG 1.1//EN" "http://www.w3.org/Graphics/SVG/1.1/DTD/svg11.dtd"><svg t="1716877631432" class="icon" viewBox="0 0 1024 1024" version="1.1" xmlns="http://www.w3.org/2000/svg" p-id="2568" xmlns:xlink="http://www.w3.org/1999/xlink" width="200" height="200"><path d="M957.2 1024H66.8C30 1024 0 994 0 957.2V66.8C0 30 30 0 66.8 0h709c12.3 0 22.3 10 22.3 22.3s-10 22.3-22.3 22.3h-709c-12.3 0-22.3 10-22.3 22.3v890.4c0 12.3 10 22.3 22.3 22.3h890.4c12.3 0 22.3-10 22.3-22.3v-564c0-12.3 10-22.3 22.3-22.3s22.3 10 22.3 22.3v563.9c-0.1 36.8-30.1 66.8-66.9 66.8z" fill="" p-id="2569"></path><path d="M157.6 836.4L987.8 6.2c8.2-8.2 21.7-8.2 30 0 8.2 8.2 8.2 21.7 0 30L187.6 866.4c-8.2 8.2-21.7 8.2-30 0-8.2-8.3-8.2-21.7 0-30z" fill="" p-id="2570"></path></svg>