<?xml version="1.0" standalone="no"?><!DOCTYPE svg PUBLIC "-//W3C//DTD SVG 1.1//EN" "http://www.w3.org/Graphics/SVG/1.1/DTD/svg11.dtd"><svg t="1717550528267" class="icon" viewBox="0 0 1024 1024" version="1.1" xmlns="http://www.w3.org/2000/svg" p-id="3771" xmlns:xlink="http://www.w3.org/1999/xlink" width="200" height="200"><path d="M378.434783 0a44.521739 44.521739 0 0 1 44.521739 44.521739v133.565218h178.086956v-22.26087a44.521739 44.521739 0 0 1 89.043479 0V178.086957h89.043478a44.521739 44.521739 0 0 1 44.521739 44.521739v756.869565a44.521739 44.521739 0 0 1-44.521739 44.521739H244.869565a44.521739 44.521739 0 0 1-44.521739-44.521739V222.608696a44.521739 44.521739 0 0 1 44.521739-44.521739h89.043478V44.521739a44.521739 44.521739 0 0 1 44.52174-44.521739z m356.173913 623.304348H289.391304v311.652174h445.217392v-311.652174z m-276.034783 178.086956c4.897391 0 8.904348 4.006957 8.904348 8.904348v71.234783a8.904348 8.904348 0 0 1-8.904348 8.904348H387.33913a8.904348 8.904348 0 0 1-8.904347-8.904348v-71.234783c0-4.897391 4.006957-8.904348 8.904347-8.904348h71.234783z m178.086957 0c4.897391 0 8.904348 4.006957 8.904347 8.904348v71.234783a8.904348 8.904348 0 0 1-8.904347 8.904348h-71.234783a8.904348 8.904348 0 0 1-8.904348-8.904348v-71.234783c0-4.897391 4.006957-8.904348 8.904348-8.904348h71.234783z m-178.086957-133.565217c4.897391 0 8.904348 4.006957 8.904348 8.904348v71.234782a8.904348 8.904348 0 0 1-8.904348 8.904348H387.33913a8.904348 8.904348 0 0 1-8.904347-8.904348v-71.234782c0-4.897391 4.006957-8.904348 8.904347-8.904348h71.234783z m178.086957 0c4.897391 0 8.904348 4.006957 8.904347 8.904348v71.234782a8.904348 8.904348 0 0 1-8.904347 8.904348h-71.234783a8.904348 8.904348 0 0 1-8.904348-8.904348v-71.234782c0-4.897391 4.006957-8.904348 8.904348-8.904348h71.234783zM734.608696 267.130435H289.391304v267.130435h445.217392V267.130435z" fill="#6A6A6A" p-id="3772"></path></svg>