<?xml version="1.0" standalone="no"?><!DOCTYPE svg PUBLIC "-//W3C//DTD SVG 1.1//EN" "http://www.w3.org/Graphics/SVG/1.1/DTD/svg11.dtd"><svg t="1717551041770" class="icon" viewBox="0 0 1024 1024" version="1.1" xmlns="http://www.w3.org/2000/svg" p-id="7973" xmlns:xlink="http://www.w3.org/1999/xlink" width="200" height="200"><path d="M804.807111 967.111111h-187.335111c-24.462222 0-47.331556-13.027556-59.619556-33.962667l-93.525333-159.687111a67.015111 67.015111 0 0 1 0-67.811555l93.639111-159.744A69.063111 69.063111 0 0 1 617.472 512h187.335111c24.462222 0 47.217778 12.970667 59.505778 33.905778l93.639111 159.857778c12.174222 20.935111 12.174222 46.819556 0.113778 67.697777l-93.752889 159.857778a69.233778 69.233778 0 0 1-59.505778 33.792z m-187.335111-399.928889a12.515556 12.515556 0 0 0-10.922667 6.144l-93.752889 159.857778a12.629333 12.629333 0 0 0 0 12.515556l93.639112 159.857777c2.275556 3.982222 6.485333 6.257778 11.036444 6.257778h187.335111c4.494222 0 8.704-2.389333 11.036445-6.257778l93.639111-159.744a12.572444 12.572444 0 0 0-0.113778-12.572444l-93.525333-159.857778a13.027556 13.027556 0 0 0-11.036445-6.257778h-187.335111z" fill="#333333" p-id="7974"></path><path d="M598.471111 739.555556c0 61.155556 50.517333 110.933333 112.64 110.933333 62.179556 0 112.64-49.777778 112.64-110.933333s-50.460444-110.933333-112.64-110.933334-112.64 49.777778-112.64 110.933334z m69.973333 39.708444c-8.704-8.988444-13.084444-22.186667-13.084444-39.708444 0-17.464889 4.380444-30.72 13.084444-39.708445 9.329778-9.557333 23.495111-14.336 42.666667-14.336 19.114667 0 33.336889 4.778667 42.609778 14.336 8.760889 8.988444 13.084444 22.186667 13.084444 39.708445 0 17.521778-4.323556 30.72-13.084444 39.708444-9.272889 9.614222-23.495111 14.392889-42.666667 14.392889-19.114667 0-33.28-4.778667-42.552889-14.392889z" fill="#333333" p-id="7975"></path><path d="M454.542222 300.942222a28.330667 28.330667 0 0 0-40.220444 0L300.942222 414.378667c-13.880889 13.425778-13.994667 26.851556-0.398222 40.504889 13.653333 13.653333 27.136 13.482667 40.504889-0.341334l65.024-65.080889v158.549334c0 18.887111 9.500444 28.330667 28.444444 28.330666 18.887111 0 28.330667-9.443556 28.330667-28.330666V389.461333L527.872 454.542222c13.368889 13.824 26.851556 13.937778 40.448 0.341334 13.653333-13.653333 13.482667-27.136-0.341333-40.504889L454.485333 300.942222z" fill="#333333" p-id="7976"></path><path d="M568.888889 902.087111H446.976v32.540445c0 10.808889-2.673778 18.944-8.135111 24.348444-5.404444 5.404444-13.539556 8.135111-24.348445 8.135111s-19.000889-2.730667-24.405333-8.135111c-5.404444-5.404444-8.135111-13.539556-8.135111-24.348444v-32.540445h-32.483556c-125.496889 0-227.555556-102.058667-227.555555-227.555555v-32.483556h-32.483556c-10.865778 0-19.000889-2.730667-24.462222-8.135111-5.347556-5.404444-8.078222-13.539556-8.078222-24.405333 0-10.808889 2.730667-18.944 8.135111-24.348445 5.404444-5.461333 13.539556-8.135111 24.405333-8.135111h32.426667V446.976h-32.426667c-10.865778 0-19.000889-2.673778-24.462222-8.135111C59.676444 433.493333 56.888889 425.301333 56.888889 414.492444s2.730667-19.000889 8.135111-24.462222c5.404444-5.347556 13.539556-8.078222 24.405333-8.078222h32.426667v-32.426667c0-125.553778 102.115556-227.555556 227.555556-227.555555h32.540444V89.315556c0-10.808889 2.730667-18.944 8.135111-24.348445 5.404444-5.404444 13.539556-8.135111 24.405333-8.135111 10.808889 0 18.944 2.730667 24.348445 8.135111 5.461333 5.404444 8.135111 13.539556 8.135111 24.348445v32.540444h130.048v-32.540444c0-10.808889 2.673778-18.944 8.135111-24.348445 5.404444-5.404444 13.539556-8.135111 24.348445-8.135111s19.000889 2.730667 24.405333 8.135111c5.404444 5.404444 8.135111 13.539556 8.135111 24.348445v32.540444h32.483556c125.496889 0 227.555556 102.058667 227.555555 227.555556v32.483555h32.540445c10.808889 0 18.944 2.730667 24.348444 8.135111 5.404444 5.404444 8.135111 13.539556 8.135111 24.405334 0 10.808889-2.730667 18.944-8.135111 24.348444-5.404444 5.461333-13.539556 8.135111-24.348444 8.135111h-32.540445V512h-65.024V349.468444a162.702222 162.702222 0 0 0-162.531555-162.531555H349.468444a162.702222 162.702222 0 0 0-162.531555 162.531555v325.063112a162.702222 162.702222 0 0 0 162.531555 162.531555H568.888889v65.024z" fill="#333333" p-id="7977"></path></svg>