<?xml version="1.0" standalone="no"?><!DOCTYPE svg PUBLIC "-//W3C//DTD SVG 1.1//EN" "http://www.w3.org/Graphics/SVG/1.1/DTD/svg11.dtd"><svg t="1716776089454" class="icon" viewBox="0 0 1024 1024" version="1.1" xmlns="http://www.w3.org/2000/svg" p-id="4525" xmlns:xlink="http://www.w3.org/1999/xlink" width="200" height="200"><path d="M435.2 512A332.8 332.8 0 0 1 768 844.8v76.8H102.4v-76.8A332.8 332.8 0 0 1 435.2 512z m0 51.2a281.6 281.6 0 0 0-281.395 270.285L153.6 844.8v25.6h563.2v-25.6a281.6 281.6 0 0 0-270.285-281.395L435.2 563.2z m153.6-102.4a332.8 332.8 0 0 1 332.8 332.8v76.8H819.2v-51.2h51.2v-25.6c0-131.072-89.498-241.152-210.688-272.589a356.71 356.71 0 0 0-133.734-54.272A334.746 334.746 0 0 1 588.8 460.8zM435.2 102.4a179.2 179.2 0 1 1 0 358.4 179.2 179.2 0 0 1 0-358.4z m0 51.2a128 128 0 1 0 0 256 128 128 0 0 0 0-256zM588.8 51.2a179.2 179.2 0 0 1 41.062 353.69 228.987 228.987 0 0 0 28.877-67.277 128 128 0 0 0-78.387-234.957 229.478 229.478 0 0 0-63.283-36.506A177.92 177.92 0 0 1 588.8 51.2z" fill="#333333" p-id="4526"></path></svg>