<?xml version="1.0" standalone="no"?><!DOCTYPE svg PUBLIC "-//W3C//DTD SVG 1.1//EN" "http://www.w3.org/Graphics/SVG/1.1/DTD/svg11.dtd"><svg t="1717550289273" class="icon" viewBox="0 0 1024 1024" version="1.1" xmlns="http://www.w3.org/2000/svg" p-id="2710" xmlns:xlink="http://www.w3.org/1999/xlink" width="200" height="200"><path d="M686.811429 219.428571v-29.257142A25.6 25.6 0 0 0 658.285714 167.497143a25.6 25.6 0 0 0-25.6 25.6V219.428571H585.142857v-29.257142a25.6 25.6 0 0 0-51.2 0V219.428571h-146.285714V98.742857A25.6 25.6 0 0 0 361.325714 73.142857a25.6 25.6 0 0 0-25.6 25.6V219.428571a60.708571 60.708571 0 0 0-54.857143 59.977143v608.548572a59.977143 59.977143 0 0 0 59.977143 59.977143h342.308572a59.977143 59.977143 0 0 0 59.977143-59.977143V282.331429A59.245714 59.245714 0 0 0 686.811429 219.428571z m5.12 668.525715a8.777143 8.777143 0 0 1-8.777143 8.777143H340.845714a8.777143 8.777143 0 0 1-8.777143-8.777143V539.794286h359.862858v348.16z m0-403.017143H332.068571V282.331429a8.777143 8.777143 0 0 1 8.777143-8.777143h342.308572a8.777143 8.777143 0 0 1 8.777143 8.777143v202.605714z" fill="#000000" fill-opacity=".65" p-id="2711"></path><path d="M539.794286 325.485714h-55.588572a25.6 25.6 0 0 0 0 51.2h55.588572a25.6 25.6 0 0 0 0-51.2zM408.868571 642.194286a25.6 25.6 0 1 0 0-51.2 25.6 25.6 0 0 0 0 51.2zM512 642.194286a25.6 25.6 0 1 0 0-51.2 25.6 25.6 0 0 0 0 51.2zM615.131429 642.194286a25.6 25.6 0 1 0 0-51.2 25.6 25.6 0 0 0 0 51.2zM408.868571 745.325714a25.6 25.6 0 1 0 0-51.2 25.6 25.6 0 0 0 0 51.2zM512 745.325714a25.6 25.6 0 1 0 0-51.2 25.6 25.6 0 0 0 0 51.2zM615.131429 745.325714a25.6 25.6 0 1 0 0-51.2 25.6 25.6 0 0 0 0 51.2zM408.868571 847.725714a25.6 25.6 0 1 0 0-51.2 25.6 25.6 0 0 0 0 51.2zM512 847.725714a25.6 25.6 0 1 0 0-51.2 25.6 25.6 0 0 0 0 51.2zM615.131429 847.725714a25.6 25.6 0 1 0 0-51.2 25.6 25.6 0 0 0 0 51.2z" fill="#000000" fill-opacity=".65" p-id="2712"></path></svg>