<svg >
            <path d="M5.021875,10.24064220703125L4.120315,11.14064220703125L2.265625,11.14064220703125L2.265625,9.14376220703125C2.265625,8.92814220703125,2.090625,8.75314220703125,1.875,8.75314220703125C1.659375,8.75314220703125,1.484375,8.92814220703125,1.484375,9.14376220703125L1.484375,12.87656220703125C1.484375,13.09216220703125,1.659375,13.26716220703125,1.875,13.26716220703125C2.090625,13.26716220703125,2.265625,13.09216220703125,2.265625,12.87656220703125L2.265625,11.92189220703125L4.320315,11.92189220703125C4.323435,11.92189220703125,4.328125,11.92032220703125,4.3312550000000005,11.92032220703125C4.334375,11.92032220703125,4.335935,11.92032220703125,4.339065,11.91876220703125C4.343755,11.91876220703125,4.346875,11.91720220703125,4.351565,11.91720220703125C4.353125,11.91720220703125,4.3562449999999995,11.91720220703125,4.357815,11.91564220703125C4.362495,11.91407220703125,4.365625,11.91407220703125,4.370315,11.91251220703125C4.371875,11.91251220703125,4.374995,11.91095220703125,4.376564999999999,11.91095220703125C4.381245,11.90939220703125,4.384375,11.90939220703125,4.389065,11.90782220703125C4.390625,11.90782220703125,4.393745,11.90626220703125,4.395315,11.90626220703125C4.398435,11.90470220703125,4.403125,11.90314220703125,4.406245,11.90314220703125C4.409375,11.90157220703125,4.410935,11.90157220703125,4.414065,11.90001220703125C4.417185,11.89845220703125,4.420315,11.89689220703125,4.423435,11.89689220703125C4.426565,11.89532220703125,4.429685,11.89532220703125,4.4312450000000005,11.89376220703125C4.434375,11.89220220703125,4.437495,11.89064220703125,4.439064999999999,11.89064220703125L4.448435,11.88595220703125C4.451565,11.88439220703125,4.453125,11.88282220703125,4.456245,11.88282220703125L4.465625,11.87814220703125C4.467185000000001,11.87657220703125,4.470314999999999,11.87657220703125,4.471875,11.87501220703125C4.474995,11.87345220703125,4.479685,11.87032220703125,4.482815,11.86876220703125C4.484375,11.86720220703125,4.485935,11.86720220703125,4.487495,11.86564220703125C4.490625,11.86407220703125,4.495315,11.86095220703125,4.498435000000001,11.85939220703125C4.499995,11.85782220703125,4.501564999999999,11.85626220703125,4.503125,11.85626220703125C4.506245,11.85313220703125,4.509375,11.85157220703125,4.514065,11.84845220703125C4.515625,11.84689220703125,4.517185,11.84532220703125,4.520315,11.84376220703125C4.523435,11.84064220703125,4.526565,11.83907220703125,4.529685000000001,11.83595220703125C4.532814999999999,11.83439220703125,4.534375,11.83126220703125,4.537495,11.82970220703125C4.540625,11.82814220703125,4.542185,11.82501220703125,4.545315,11.82345220703125C4.549995,11.82032220703125,4.553125,11.81563220703125,4.557815,11.81251220703125L4.559375,11.81095220703125L5.574995,10.79532220703125C5.728125,10.64220220703125,5.728125,10.39532220703125,5.574995,10.24220220703125C5.421875,10.08751220703125,5.174995,10.08751220703125,5.021875,10.24064220703125ZM14.076575,7.88751220703125L7.218755,3.49063720703125C7.212505,3.48438720703125,7.204685,3.47970020703125,7.196875,3.47501220703125C7.182815,3.46563720703125,7.167185,3.45626220703125,7.153125,3.44845020703125L6.131255,2.79376220703125C6.068755,2.75313710703125,5.995315,2.73126220703125,5.920315,2.73126220703125L4.860935,2.73126220703125C4.729685,2.73126220703125,4.607815,2.79688720703125,4.535935,2.90626220703125L2.426563,6.07657220703125C2.425001,6.07813220703125,2.423438,6.07970220703125,2.423438,6.08282220703125C2.164063,6.48907220703125,2.281251,7.02970220703125,2.687505,7.29063220703125L9.029685,11.35626220703125C9.290625,11.52345220703125,9.587505,11.60782220703125,9.885935,11.60782220703125C10.153125,11.60782220703125,10.418745,11.54063220703125,10.660935,11.40470220703125L14.028075,9.52032220703125C14.323475,9.35470220703125,14.504675,9.05470220703125,14.515575,8.71720220703125C14.524975,8.37970220703125,14.360975,8.06876220703125,14.076575,7.88751220703125ZM3.079685,6.50626220703125L5.070315,3.51407520703125L5.806255,3.51407520703125L6.425005,3.91095220703125L4.115625,7.27657220703125L3.109375,6.63282220703125C3.0671850000000003,6.60470220703125,3.053125,6.54845220703125,3.079685,6.50626220703125ZM13.734375,8.69376220703125C13.732775,8.72970220703125,13.720275,8.796892207031249,13.646875,8.83751220703125L10.279685,10.72345220703125C10.020315,10.86876220703125,9.701565,10.85939220703125,9.451565,10.69845220703125L4.773435,7.69845220703125L7.082815,4.33126220703125L13.656275,8.54532220703125C13.726575,8.59064220703125,13.735975,8.65782220703125,13.734375,8.69376220703125Z" fill="#333333" fill-opacity="1"/>
     </svg>
