<?xml version="1.0" standalone="no"?><!DOCTYPE svg PUBLIC "-//W3C//DTD SVG 1.1//EN" "http://www.w3.org/Graphics/SVG/1.1/DTD/svg11.dtd"><svg t="1716536129949" class="icon" viewBox="0 0 1024 1024" version="1.1" xmlns="http://www.w3.org/2000/svg" p-id="9942" xmlns:xlink="http://www.w3.org/1999/xlink" width="200" height="200"><path d="M766.08 757.51c-64.62 0-117.19-52.57-117.19-117.19s52.57-117.19 117.19-117.19 117.19 52.57 117.19 117.19-52.57 117.19-117.19 117.19z m0-184.38c-37.05 0-67.19 30.14-67.19 67.19s30.14 67.19 67.19 67.19 67.19-30.14 67.19-67.19-30.14-67.19-67.19-67.19z" fill="#231815" p-id="9943"></path><path d="M915.99 946.11H615.86c-13.81 0-25-11.19-25-25 0-41.66 17.65-82 49.71-113.58 33.4-32.91 79.42-52.39 123.51-52.39 0.74 0 1.47 0.01 2.21 0.02 42.53 0.63 86.3 18.96 120.08 50.29 34.71 32.19 54.61 74.35 54.61 115.67 0.01 13.79-11.18 24.99-24.99 24.99z m-271.87-50h243.1c-14.37-48.13-67.58-90.16-121.66-90.97-31.66-0.45-65.26 13.73-89.89 38-15.74 15.5-26.51 33.74-31.55 52.97zM504.41 953.22H98c-13.81 0-25-11.19-25-25V98.23c0-13.81 11.19-25 25-25h459.11c6.94 0 13.57 2.89 18.3 7.97L806.9 329.94a25.03 25.03 0 0 1 6.7 17.03v97.59c0 13.81-11.19 25-25 25s-25-11.19-25-25v-87.75L546.23 123.23H123v779.99h381.41c13.81 0 25 11.19 25 25s-11.19 25-25 25z" fill="#231815" p-id="9944"></path><path d="M546.57 763.95H222.06c-13.81 0-25-11.19-25-25s11.19-25 25-25h324.51c13.81 0 25 11.19 25 25s-11.19 25-25 25zM355.53 580.99H222.06c-13.81 0-25-11.19-25-25s11.19-25 25-25h133.47c13.81 0 25 11.19 25 25s-11.19 25-25 25zM459.29 398.04H222.06c-13.81 0-25-11.19-25-25s11.19-25 25-25h237.23c13.81 0 25 11.19 25 25s-11.2 25-25 25z" fill="#231815" p-id="9945"></path></svg>