<svg xmlns="http://www.w3.org/2000/svg" xmlns:xlink="http://www.w3.org/1999/xlink" fill="none" version="1.1" width="16" height="16" viewBox="0 0 16 16"><defs><clipPath id="master_svg0_216_13719"><rect x="0" y="0" width="16" height="16" rx="0"/></clipPath></defs><g clip-path="url(#master_svg0_216_13719)"><g><path d="M2.5,7C2.354,7,2.234167,6.95317,2.1405,6.8595C2.0468334,6.76583,1.9999999999999998,6.646,2,6.5C2,6.5,2,2.5,2,2.5C2,2.354,2.0468334,2.234167,2.1405,2.1405C2.234167,2.0468334,2.354,1.9999999999999998,2.5,2C2.5,2,6.5,2,6.5,2C6.646,2,6.76583,2.0468334,6.8595,2.1405C6.95317,2.234167,7,2.354,7,2.5C7,2.5,7,6.5,7,6.5C7,6.646,6.95317,6.76583,6.8595,6.8595C6.76583,6.95317,6.646,7,6.5,7C6.5,7,2.5,7,2.5,7C2.5,7,2.5,7,2.5,7ZM9.5,7C9.354,7,9.234169999999999,6.95317,9.1405,6.8595C9.04683,6.76583,9,6.646,9,6.5C9,6.5,9,2.5,9,2.5C9,2.354,9.04683,2.234167,9.1405,2.1405C9.234169999999999,2.0468334,9.354,1.9999999999999998,9.5,2C9.5,2,13.5,2,13.5,2C13.646,2,13.7658,2.0468334,13.8595,2.1405C13.9532,2.234167,14,2.354,14,2.5C14,2.5,14,6.5,14,6.5C14,6.646,13.9532,6.76583,13.8595,6.8595C13.7658,6.95317,13.646,7,13.5,7C13.5,7,9.5,7,9.5,7C9.5,7,9.5,7,9.5,7ZM2.5,14C2.354,14,2.234167,13.9532,2.1405,13.8595C2.0468334,13.7658,1.9999999999999998,13.646,2,13.5C2,13.5,2,9.5,2,9.5C2,9.354,2.0468334,9.234169999999999,2.1405,9.1405C2.234167,9.04683,2.354,9,2.5,9C2.5,9,6.5,9,6.5,9C6.646,9,6.76583,9.04683,6.8595,9.1405C6.95317,9.234169999999999,7,9.354,7,9.5C7,9.5,7,13.5,7,13.5C7,13.646,6.95317,13.7658,6.8595,13.8595C6.76583,13.9532,6.646,14,6.5,14C6.5,14,2.5,14,2.5,14C2.5,14,2.5,14,2.5,14ZM9.5,14C9.354,14,9.234169999999999,13.9532,9.1405,13.8595C9.04683,13.7658,9,13.646,9,13.5C9,13.5,9,9.5,9,9.5C9,9.354,9.04683,9.234169999999999,9.1405,9.1405C9.234169999999999,9.04683,9.354,9,9.5,9C9.5,9,13.5,9,13.5,9C13.646,9,13.7658,9.04683,13.8595,9.1405C13.9532,9.234169999999999,14,9.354,14,9.5C14,9.5,14,13.5,14,13.5C14,13.646,13.9532,13.7658,13.8595,13.8595C13.7658,13.9532,13.646,14,13.5,14C13.5,14,9.5,14,9.5,14C9.5,14,9.5,14,9.5,14Z" fill="#FF8F1F" fill-opacity="1"/></g></g></svg>