<?xml version="1.0" standalone="no"?><!DOCTYPE svg PUBLIC "-//W3C//DTD SVG 1.1//EN" "http://www.w3.org/Graphics/SVG/1.1/DTD/svg11.dtd"><svg t="1717550758178" class="icon" viewBox="0 0 1024 1024" version="1.1" xmlns="http://www.w3.org/2000/svg" p-id="5904" xmlns:xlink="http://www.w3.org/1999/xlink" width="200" height="200"><path d="M320 0C231.6288 0 160 71.6288 160 160v384C160 632.3712 231.6288 704 320 704S480 632.3712 480 544v-384C480 71.6288 408.3712 0 320 0z m0 769.984c62.72 0 119.296-26.048 160-67.712v80.96A287.36 287.36 0 0 1 339.776 832H352v128h128v64H160v-64h128V832h12.224C150.784 821.632 32 698.048 32 545.984V448h64v97.984c0 123.52 100.48 224 224 224zM544 448v576h448V448H544z m320 192H672v-64h192v64z m0 128H672v-64h192v64z m-64 128H672v-64h128v64z" fill="#4476A7" p-id="5905"></path></svg>