<?xml version="1.0" standalone="no"?><!DOCTYPE svg PUBLIC "-//W3C//DTD SVG 1.1//EN" "http://www.w3.org/Graphics/SVG/1.1/DTD/svg11.dtd"><svg t="1715580006367" class="icon" viewBox="0 0 1024 1024" version="1.1" xmlns="http://www.w3.org/2000/svg" p-id="2560" xmlns:xlink="http://www.w3.org/1999/xlink" width="200" height="200"><path d="M245.76 0c-17.408 0-30.72 13.312-30.72 30.72v102.4c0 17.408 13.312 30.72 30.72 30.72s30.72-13.312 30.72-30.72V30.72c0-17.408-13.312-30.72-30.72-30.72zM696.32 0c-17.408 0-30.72 13.312-30.72 30.72v102.4c0 17.408 13.312 30.72 30.72 30.72s30.72-13.312 30.72-30.72V30.72c0-17.408-13.312-30.72-30.72-30.72zM593.92 481.28H174.08c-17.408 0-30.72 13.312-30.72 30.72s13.312 30.72 30.72 30.72h419.84c17.408 0 30.72-13.312 30.72-30.72s-13.312-30.72-30.72-30.72zM450.56 665.6H174.08c-17.408 0-30.72 13.312-30.72 30.72s13.312 30.72 30.72 30.72h276.48c17.408 0 30.72-13.312 30.72-30.72s-13.312-30.72-30.72-30.72zM768 512c-141.312 0-256 114.688-256 256s114.688 256 256 256 256-114.688 256-256-114.688-256-256-256z m0 450.56c-107.52 0-194.56-87.04-194.56-194.56s87.04-194.56 194.56-194.56 194.56 87.04 194.56 194.56-87.04 194.56-194.56 194.56z" p-id="2561"></path><path d="M482.304 880.64H102.4c-22.528 0-40.96-18.432-40.96-40.96V204.8c0-22.528 18.432-40.96 40.96-40.96h737.28c22.528 0 40.96 18.432 40.96 40.96v277.504c21.504 8.192 41.984 19.456 61.44 32.768V184.32c0-45.056-36.864-81.92-81.92-81.92H81.92c-45.056 0-81.92 36.864-81.92 81.92v675.84c0 45.056 36.864 81.92 81.92 81.92h433.152c-13.312-19.456-24.576-39.936-32.768-61.44z" p-id="2562"></path><path d="M482.304 880.64H102.4c-22.528 0-40.96-18.432-40.96-40.96V389.12c0-22.528 18.432-40.96 40.96-40.96h737.28c22.528 0 40.96 18.432 40.96 40.96v93.184c21.504 8.192 41.984 19.456 61.44 32.768V368.64c0-45.056-36.864-81.92-81.92-81.92H81.92c-45.056 0-81.92 36.864-81.92 81.92v491.52c0 45.056 36.864 81.92 81.92 81.92h433.152c-13.312-19.456-24.576-39.936-32.768-61.44z" p-id="2563"></path><path d="M768 798.72c-17.408 0-30.72-13.312-30.72-30.72V665.6c0-17.408 13.312-30.72 30.72-30.72s30.72 13.312 30.72 30.72v102.4c0 17.408-13.312 30.72-30.72 30.72z" p-id="2564"></path><path d="M746.496 746.496c12.288-12.288 31.744-12.288 43.008 0l72.704 72.704c12.288 12.288 12.288 31.744 0 43.008-12.288 12.288-31.744 12.288-43.008 0l-72.704-72.704c-12.288-12.288-12.288-31.744 0-43.008z" p-id="2565"></path></svg>