<?xml version="1.0" standalone="no"?><!DOCTYPE svg PUBLIC "-//W3C//DTD SVG 1.1//EN" "http://www.w3.org/Graphics/SVG/1.1/DTD/svg11.dtd"><svg t="1716536187570" class="icon" viewBox="0 0 1024 1024" version="1.1" xmlns="http://www.w3.org/2000/svg" p-id="10941" xmlns:xlink="http://www.w3.org/1999/xlink" width="200" height="200"><path d="M192.064 125.824c-35.328 0-64.064 27.52-64.064 61.632v710.912c0 34.112 28.736 61.632 64.064 61.632H832c35.328 0 64.064-27.52 64.064-61.632V187.456c0-34.112-28.736-61.632-64.064-61.632H736l32 30.848v-46.4A47.232 47.232 0 0 0 720 64h-416a47.104 47.104 0 0 0-48 46.272v46.4l32-30.848H192.064zM320 187.52V110.272a15.872 15.872 0 0 1-16 15.552h416a15.744 15.744 0 0 1-16-15.552v77.312h127.936C832 187.584 832 898.368 832 898.368c0-0.128-639.936-0.192-639.936-0.192C192 898.176 192 187.52 192 187.52c0 0.128 96 0.128 96 0.128H320z m384 15.488c0-8.512 7.232-15.488 16-15.488h-416c8.896 0 16 6.912 16 15.488v-46.4a31.488 31.488 0 0 0-32-30.848c-17.664 0-32 13.824-32 30.848v46.4c0 25.472 21.44 46.336 48 46.336h416c26.624 0 48-20.736 48-46.336v-46.4a31.488 31.488 0 0 0-32-30.848c-17.664 0-32 13.824-32 30.848v46.4z m0 247.104c17.664 0 32-13.824 32-30.848a31.488 31.488 0 0 0-32-30.912H320c-17.664 0-32 13.824-32 30.912 0 17.024 14.336 30.848 32 30.848h384zM320 542.912c-17.664 0-32 13.824-32 30.912 0 17.024 14.336 30.848 32 30.848h384c17.664 0 32-13.824 32-30.848a31.488 31.488 0 0 0-32-30.912H320z m0 154.496c-17.664 0-32 13.824-32 30.848 0 17.088 14.336 30.912 32 30.912h256c17.664 0 32-13.824 32-30.912a31.488 31.488 0 0 0-32-30.848H320z" fill="#000000" p-id="10942"></path></svg>