<svg>
        <path d="M14.1807,2.969188C14.1807,2.969188,13.2827,2.969188,13.2827,2.969188C13.2827,2.969188,13.2827,2.484594,13.2827,2.484594C13.2827,2.21696,13.0723,2,12.8126,2C12.6916,2.000496663,12.5754,2.0490984,12.4882,2.135686C12.4036,2.223545,12.3548,2.341452,12.3519,2.465212C12.3519,2.465212,12.3519,2.949806,12.3519,2.949806C12.3519,2.949806,5.6527899999999995,2.949806,5.6527899999999995,2.949806C5.6527899999999995,2.949806,5.6527899999999995,2.465212,5.6527899999999995,2.465212C5.6511,2.342122,5.6040399999999995,2.224305,5.5211500000000004,2.135685C5.4284,2.0630792,5.31282,2.0285425,5.19678,2.0387662C5.07737,2.0404989,4.96307,2.0890112,4.8771,2.174453C4.788959999999999,2.259815,4.739520000000001,2.379319,4.7407699999999995,2.503978C4.7407699999999995,2.503978,4.7407699999999995,2.988572,4.7407699999999995,2.988572C4.7407699999999995,2.988572,3.8287500000000003,2.988572,3.8287500000000003,2.988572C2.8319739999999998,2.980457,2.0154592,3.80265,2,4.83004C2,4.83004,2,14.1391,2,14.1391C2.00248364,14.6361,2.196705,15.1115,2.5398009999999998,15.4607C2.882896,15.8098,3.34666,16.0038,3.8287500000000003,15.9999C3.8287500000000003,15.9999,14.1713,15.9999,14.1713,15.9999C14.6533,16.0038,15.1171,15.8098,15.4602,15.4607C15.8033,15.1115,15.9975,14.636,16,14.1391C16,14.1391,16,4.83004,16,4.83004C15.9948,3.79886,15.181,2.966508,14.1807,2.969198C14.1807,2.969198,14.1807,2.969188,14.1807,2.969188ZM15.0927,14.1391C15.0892,14.3876,14.9933,14.6253,14.8247,14.803C14.654,14.9782,14.4215,15.0744,14.1807,15.0695C14.1807,15.0695,3.8381499999999997,15.0695,3.8381499999999997,15.0695C3.5971900000000003,15.0749,3.36454,14.9786,3.19409,14.803C3.02377,14.6261,2.926117,14.3883,2.921429,14.1391C2.921429,14.1391,2.921429,4.83004,2.921429,4.83004C2.9251139999999998,4.5776900000000005,3.02657,4.33735,3.20319,4.16258C3.37981,3.9878,3.61691,3.89311,3.86166,3.89961C3.86166,3.89961,4.7407699999999995,3.89961,4.7407699999999995,3.89961C4.7407699999999995,3.89961,4.7407699999999995,4.3842099999999995,4.7407699999999995,4.3842099999999995C4.739520000000001,4.50887,4.788959999999999,4.62837,4.8771,4.71373C4.96307,4.79918,5.07737,4.84769,5.19678,4.84942C5.31782,4.84892,5.43401,4.80032,5.52116,4.71373C5.60405,4.625109999999999,5.65111,4.5073,5.6527899999999995,4.3842099999999995C5.6527899999999995,4.3842099999999995,5.6527899999999995,3.89961,5.6527899999999995,3.89961C5.6527899999999995,3.89961,12.3425,3.89961,12.3425,3.89961C12.3425,3.89961,12.3425,4.3842099999999995,12.3425,4.3842099999999995C12.3454,4.50797,12.3942,4.62587,12.4788,4.71373C12.6598,4.88913,12.9419,4.88913,13.1229,4.71373C13.2207,4.625249999999999,13.2786,4.49892,13.2827,4.36482C13.2827,4.36482,13.2827,3.88023,13.2827,3.88023C13.2827,3.88023,14.1947,3.88023,14.1947,3.88023C14.6959,3.8775500000000003,15.1042,4.29411,15.1068,4.81065C15.1068,4.81065,15.0927,14.1391,15.0927,14.1391C15.0927,14.1391,15.0927,14.1391,15.0927,14.1391ZM7.23706,6.83141C7.23706,6.83141,5.76091,8.3385,5.76091,8.3385C5.76091,8.3385,5.19207,7.75698,5.19207,7.75698C5.02182,7.59144,4.755879999999999,7.59144,4.5856200000000005,7.75698C4.42564,7.93086,4.42564,8.203389999999999,4.5856200000000005,8.37726C4.5856200000000005,8.37726,5.52585,9.34645,5.52585,9.34645C5.65046,9.47119,5.8344000000000005,9.50911,5.99597,9.44337C6.06934,9.42019,6.13679,9.38046,6.19342,9.327069999999999C6.19342,9.327069999999999,7.94224,7.53891,7.94224,7.53891C8.03604,7.44674,8.08877,7.31874,8.08797,7.18516C8.09008,7.0499,8.03725,6.91988,7.94224,6.82656C7.74613,6.63395,7.43788,6.63395,7.24177,6.82656C7.24177,6.82656,7.23706,6.83141,7.23706,6.83141C7.23706,6.83141,7.23706,6.83141,7.23706,6.83141ZM9.4607,8.08651C9.4607,8.08651,8.548680000000001,8.08651,8.548680000000001,8.08651C8.357569999999999,8.032969999999999,8.15441,8.10863,8.04062,8.27572C7.92684,8.4428,7.92684,8.665479999999999,8.04062,8.83256C8.15441,8.999649999999999,8.357569999999999,9.07531,8.548680000000001,9.02178C8.548680000000001,9.02178,9.4607,9.02178,9.4607,9.02178C9.58174,9.02128,9.69793,8.97268,9.78508,8.88609C9.95524,8.699539999999999,9.95524,8.40874,9.78508,8.222190000000001C9.69793,8.1356,9.58174,8.087,9.4607,8.08651C9.4607,8.08651,9.4607,8.08651,9.4607,8.08651ZM12.6575,8.08651C12.6575,8.08651,11.74546,8.08651,11.74546,8.08651C11.5645,8.09202,11.40269,8.20416,11.32944,8.37482C11.25619,8.545490000000001,11.28452,8.744340000000001,11.40228,8.88609C11.48943,8.97268,11.60561,9.02128,11.72666,9.02178C11.72666,9.02178,12.6387,9.02178,12.6387,9.02178C12.7597,9.02128,12.8759,8.97268,12.9631,8.88609C13.1332,8.699539999999999,13.1332,8.40874,12.9631,8.222190000000001C12.8759,8.13561,12.7597,8.087,12.6387,8.08651C12.6387,8.08651,12.6575,8.08651,12.6575,8.08651C12.6575,8.08651,12.6575,8.08651,12.6575,8.08651ZM9.4607,10.86808C9.4607,10.86808,8.548680000000001,10.86808,8.548680000000001,10.86808C8.42764,10.86857,8.31145,10.91718,8.2243,11.00376C8.14368,11.10027,8.10315,11.2256,8.11147,11.35267C8.114419999999999,11.47643,8.1632,11.59434,8.247810000000001,11.68219C8.334959999999999,11.76878,8.45115,11.81738,8.572189999999999,11.81788C8.572189999999999,11.81788,9.484210000000001,11.81788,9.484210000000001,11.81788C9.60525,11.81738,9.721440000000001,11.76878,9.808589999999999,11.68219C9.89147,11.59357,9.93854,11.47576,9.94022,11.35267C9.93854,11.22958,9.89147,11.11176,9.808589999999999,11.02315C9.721440000000001,10.93656,9.60525,10.88795,9.484210000000001,10.88746C9.484210000000001,10.88746,9.4607,10.86808,9.4607,10.86808C9.4607,10.86808,9.4607,10.86808,9.4607,10.86808ZM12.507,10.71301C12.507,10.71301,11.56681,10.71301,11.56681,10.71301C11.30717,10.71301,11.0967,10.92997,11.0967,11.1976C11.09964,11.32136,11.14842,11.43927,11.23303,11.52712C11.319,11.61257,11.4333,11.66108,11.55271,11.66281C11.55271,11.66281,12.4929,11.66281,12.4929,11.66281C12.6123,11.66108,12.7266,11.61257,12.8126,11.52712C12.8972,11.43927,12.946,11.32136,12.9489,11.1976C12.9489,10.92997,12.7385,10.71301,12.4788,10.71301C12.4788,10.71301,12.507,10.71301,12.507,10.71301C12.507,10.71301,12.507,10.71301,12.507,10.71301ZM6.26392,10.86808C6.26392,10.86808,5.3472100000000005,10.86808,5.3472100000000005,10.86808C5.08758,10.86808,4.8771,11.08504,4.8771,11.35267C4.88004,11.47643,4.92882,11.59434,5.01343,11.68219C5.099410000000001,11.76764,5.213699999999999,11.81615,5.33311,11.81788C5.33311,11.81788,6.27334,11.81788,6.27334,11.81788C6.39275,11.81615,6.50704,11.76764,6.59302,11.68219C6.66993,11.59142,6.70881,11.47293,6.70114,11.35267C6.70239,11.22801,6.65295,11.10851,6.56481,11.02315C6.48651,10.93497,6.37935,10.87974,6.26394,10.86808C6.26394,10.86808,6.26392,10.86808,6.26392,10.86808Z" fill="#333333" fill-opacity="1"/><path d="M15.4993,3.47696Q14.952,2.917173,14.1807,2.9191979999999997L13.3327,2.919188L13.3327,2.484594Q13.3327,2.263602,13.1809,2.107119Q13.0285,1.95,12.8124,1.9500004Q12.6033,1.9508584,12.4522,2.101003Q12.307,2.251843,12.3019,2.464023L12.3019,2.464617L12.3019,2.899806L5.70279,2.899806L5.702780000000001,2.464528Q5.6998999999999995,2.253595,5.55767,2.10153L5.55502,2.0987018L5.55197,2.0963148Q5.39307,1.9719143,5.19422,1.988801Q4.98934,1.99241526,4.84232,2.138536Q4.6886,2.287411,4.6907700000000006,2.503978L4.6907700000000006,2.9385719999999997L3.82916,2.938574Q3.06052,2.932316,2.510903,3.48576Q1.9619036,4.03858,1.95,4.83004L1.9500006,14.1394Q1.9539814,14.9359,2.504139,15.4957Q3.05492,16.0562,3.8287500000000003,16.0499L14.1708,16.0499Q14.9451,16.0562,15.4959,15.4957Q16.046,14.9359,16.05,14.1391L16.05,4.8297799999999995Q16.046,4.03618,15.4993,3.47696ZM14.1807,2.969198L14.1807,3.01919L13.2327,3.01919L13.2327,2.484594Q13.2327,2.304138,13.1091,2.176749Q12.9862,2.05,12.8128,2.0499996Q12.6447,2.0506893,12.5243,2.170369Q12.4062,2.292948,12.4019,2.465813L12.4019,2.999806L5.602790000000001,2.999806L5.602790000000001,2.465895Q5.60047,2.295621,5.4872700000000005,2.172681Q5.35987,2.0745901,5.201169999999999,2.0885733L5.199339999999999,2.0887343L5.197509999999999,2.088761Q5.03184,2.0911649,4.91189,2.21037Q4.78902,2.329361,4.79077,2.503978L4.79077,3.03857L3.82834,3.03857Q3.10181,3.03266,2.581858,3.5562199999999997Q2.0612853,4.0804100000000005,2.05,4.83004L2.0499994,14.1389Q2.0537777,14.8948,2.575462,15.4256Q3.09652,15.9558,3.8287500000000003,15.9499L14.1717,15.9499Q14.9035,15.9558,15.4245,15.4256Q15.9462,14.8948,15.95,14.1391L15.95,4.83029Q15.9462,4.07715,15.4278,3.54687Q14.91,3.01724,14.1808,3.0192L14.1807,2.969198ZM15.1427,14.1392L15.1568,4.8107299999999995L15.1568,4.8104Q15.1547,4.40272,14.8734,4.11573Q14.5915,3.8281,14.1947,3.8302300000000002L13.2327,3.8302300000000002L13.2327,4.36404Q13.2267,4.55247,13.0894,4.67665L13.0887,4.67723L13.0881,4.67783Q12.8012,4.9559,12.5143,4.67844Q12.3968,4.55605,12.3925,4.38361L12.3925,3.84961L5.602790000000001,3.84961L5.6028,4.38352Q5.60045,4.5553,5.48527,4.67891Q5.3642199999999995,4.79873,5.197509999999999,4.79943Q5.03184,4.79702,4.91189,4.6778200000000005Q4.78902,4.55882,4.79077,4.3842099999999995L4.79077,3.84961L3.86232,3.84961Q3.45894,3.83915,3.1680200000000003,4.12704Q2.877492,4.41453,2.871428,4.83004L2.871438,14.14Q2.879111,14.5479,3.15821,14.8378Q3.4398400000000002,15.128,3.8381499999999997,15.1195L3.83871,15.1195L14.1797,15.1195Q14.5782,15.1275,14.861,14.8374Q15.1371,14.5464,15.1427,14.1392ZM15.0568,4.81058L15.0568,4.8109L15.0427,14.139Q15.0376,14.506,14.7884,14.7686Q14.5369,15.0267,14.1817,15.0195L3.83759,15.0195L3.83703,15.0195Q3.48162,15.0275,3.2299800000000003,14.7682Q2.978356,14.5068,2.97142,14.1382L2.971429,4.83004Q2.976884,4.45687,3.23836,4.198119999999999Q3.49919,3.94001,3.8603300000000003,3.9496L3.86099,3.94961L4.6907700000000006,3.94961L4.6907700000000006,4.3842099999999995Q4.68859,4.60077,4.84232,4.74965Q4.99,4.89642,5.19605,4.89941Q5.40608,4.89856,5.5564,4.7492L5.55705,4.7485599999999994L5.5576799999999995,4.74789Q5.6998999999999995,4.59582,5.70279,4.38489L5.70279,3.94961L12.2925,3.94961L12.2925,4.3848L12.2925,4.385400000000001Q12.2976,4.59758,12.4428,4.748419999999999L12.4434,4.74904L12.444,4.749639999999999Q12.5943,4.89528,12.8009,4.89528Q13.007,4.89528,13.1571,4.75024Q13.3256,4.5974,13.3327,4.36636L13.3327,4.36559L13.3327,3.93023L14.1947,3.93023Q14.5497,3.92833,14.802,4.1857299999999995Q15.0548,4.44365,15.0568,4.81058ZM7.2063,6.79131L7.20588,6.79174L7.20118,6.79659L5.76093,8.267019999999999L5.22738,7.72157L5.226929999999999,7.72114Q5.0846800000000005,7.58283,4.88885,7.58283Q4.69301,7.58283,4.55077,7.72114L4.5497700000000005,7.72211L4.548830000000001,7.72313Q4.41563,7.86789,4.41563,8.06712Q4.41563,8.266359999999999,4.548830000000001,8.41112L4.5492799999999995,8.41161L5.48997,9.38127Q5.71793,9.60948,6.01295,9.49044Q6.13412,9.45169,6.22772,9.36345L6.22845,9.36276L7.97798,7.57387Q8.13935,7.41533,8.13797,7.18486Q8.14161,6.95231,7.97728,6.79089Q7.81561,6.6321,7.592,6.6321Q7.3684,6.6321,7.20673,6.79089L7.2063,6.79131ZM7.27723,6.86181L7.27295,6.86622L5.76089,8.409980000000001L5.1567799999999995,7.7924Q4.88912,7.53259,4.62148,7.79187Q4.36889,8.06739,4.62197,8.34292L5.56174,9.31164Q5.74247,9.49254,5.97712,9.39706L5.97899,9.3963L5.9809,9.3957Q6.08097,9.364080000000001,6.1584,9.291360000000001L7.90649,7.50395Q8.039100000000001,7.37364,8.03797,7.18546Q8.040949999999999,6.99361,7.9072,6.86223Q7.59222,6.55287,7.27723,6.86181ZM9.820319999999999,8.186720000000001Q9.67,8.03736,9.46091,8.03651L9.4607,8.08651L9.4607,8.03651L8.555430000000001,8.03651Q8.20711,7.94241,7.99929,8.24758Q7.79052,8.55414,7.99929,8.860710000000001Q8.20711,9.16587,8.555430000000001,9.07178L9.46091,9.07177Q9.66999,9.070920000000001,9.820319999999999,8.92156L9.82119,8.92069L9.82202,8.91978Q9.9627,8.76556,9.9627,8.55414Q9.9627,8.34272,9.82202,8.188500000000001L9.82119,8.18759L9.820319999999999,8.186720000000001ZM9.4607,8.136510000000001L8.54181,8.136510000000001L8.53519,8.13465Q8.25133,8.05513,8.081949999999999,8.30386Q7.91151,8.55414,8.081949999999999,8.80442Q8.25133,9.053139999999999,8.53519,8.97363L8.54181,8.971779999999999L9.4605,8.971779999999999Q9.62799,8.97109,9.74897,8.851479999999999Q10.01935,8.55414,9.74898,8.25681Q9.628070000000001,8.137270000000001,9.4607,8.136510000000001ZM12.6387,8.136510000000001L11.74623,8.136510000000001Q11.48254,8.14489,11.37538,8.39454Q11.26806,8.6446,11.43921,8.85229Q11.55994,8.97109,11.72686,8.971779999999999L12.6387,8.971779999999999Q12.806,8.97109,12.927,8.851469999999999Q13.1973,8.55414,12.927,8.25681Q12.806,8.137270000000001,12.6387,8.136510000000001ZM12.9983,8.186720000000001Q12.8547,8.04405,12.6575,8.03688L12.6575,8.03651L11.7447,8.03651L11.74394,8.036529999999999Q11.41594,8.04653,11.28349,8.3551Q11.15155,8.66253,11.36382,8.918040000000001L11.36534,8.91988L11.36704,8.92156Q11.51737,9.070920000000001,11.72645,9.07177L12.6387,9.07178Q12.848,9.070920000000001,12.9983,8.92156L12.9992,8.92069L13,8.91978Q13.1407,8.76556,13.1407,8.55414Q13.1407,8.34272,13,8.188500000000001L12.9992,8.18759L12.9983,8.186720000000001ZM12.4788,10.76301L11.56681,10.76301Q11.39324,10.76301,11.27028,10.88976Q11.1469,11.01694,11.1467,11.19701Q11.15101,11.36987,11.26904,11.49244Q11.38776,11.61042,11.55343,11.61282L12.4929,11.61281Q12.6579,11.61041,12.7774,11.49166Q12.8946,11.36987,12.8989,11.19701Q12.8987,11.01694,12.7754,10.88976Q12.6524,10.76301,12.4788,10.76301ZM12.8471,10.82013Q12.7048,10.67337,12.507,10.66369L12.507,10.66301L11.56681,10.66301Q11.35093,10.66301,11.1985,10.82013Q11.0467,10.97661,11.0467,11.1976L11.0467,11.19819L11.04671,11.19879Q11.05175,11.41098,11.19701,11.56181Q11.34592,11.70982,11.55198,11.71281L12.4929,11.71281Q12.6997,11.70982,12.8479,11.56259Q12.9939,11.41096,12.9989,11.19879L12.9989,11.19819L12.9989,11.1976Q12.9989,10.97661,12.8471,10.82013ZM6.60095,10.98855Q6.46671,10.83832,6.26897,10.81833L6.26392,10.86824L6.26392,10.81808L5.3472100000000005,10.81808Q5.13133,10.81808,4.97891,10.9752Q4.8271,11.13168,4.8271,11.35267L4.8271,11.35326L4.827109999999999,11.35386Q4.83216,11.56604,4.97819,11.71766Q5.126329999999999,11.86489,5.33311,11.86788L6.27406,11.86788Q6.48012,11.86489,6.62826,11.71766L6.62978,11.71615L6.63116,11.71452Q6.76371,11.55809,6.75116,11.35133Q6.75266,11.13644,6.60095,10.98855ZM6.26136,10.91808L5.3472100000000005,10.91808Q5.17364,10.91808,5.05068,11.04483Q4.9273,11.172,4.927099999999999,11.35207Q4.93141,11.52494,5.04868,11.64673Q5.16817,11.76548,5.33311,11.76788L6.27261,11.76789Q6.43723,11.7655,6.55625,11.64824Q6.66186,11.52244,6.65124,11.35585L6.65113,11.35401L6.65115,11.35217Q6.65289,11.17806,6.53003,11.05906L6.52867,11.05775L6.52743,11.05635Q6.41959,10.93492,6.26136,10.91808ZM9.502600000000001,10.83782L9.47866,10.81808L8.548680000000001,10.81808Q8.33938,10.81894,8.18906,10.96829L8.18742,10.96993L8.185929999999999,10.97171Q8.0476,11.13727,8.06151,11.3549Q8.06689,11.56641,8.21179,11.71688Q8.36289,11.86702,8.57198,11.86788L9.484210000000001,11.86788Q9.69351,11.86702,9.84383,11.71766L9.84448,11.71702L9.8451,11.71635Q9.98733,11.56428,9.990210000000001,11.35335L9.99022,11.35267L9.990210000000001,11.35199Q9.98733,11.14106,9.8451,10.98899L9.84448,10.98832L9.84383,10.98768Q9.70009,10.84486,9.502600000000001,10.83782ZM9.44275,10.91808L9.4524,10.92603L9.46616,10.93738L9.484,10.93746Q9.65165,10.93815,9.77269,11.05797Q9.88765,11.18133,9.89021,11.35267Q9.88765,11.524,9.77269,11.64737Q9.65165,11.76719,9.484210000000001,11.76788L8.57239,11.76788Q8.40429,11.76719,8.28382,11.64751Q8.16558,11.52472,8.16146,11.35148L8.161439999999999,11.35044L8.16137,11.3494Q8.14976,11.17224,8.26119,11.0376Q8.38193,10.91876,8.548680000000001,10.91808L9.44275,10.91808Z" fill-rule="evenodd" fill="#333333" fill-opacity="1"/>

</svg>
