<?xml version="1.0" standalone="no"?><!DOCTYPE svg PUBLIC "-//W3C//DTD SVG 1.1//EN" "http://www.w3.org/Graphics/SVG/1.1/DTD/svg11.dtd"><svg t="1716776146127" class="icon" viewBox="0 0 1109 1024" version="1.1" xmlns="http://www.w3.org/2000/svg" p-id="5562" xmlns:xlink="http://www.w3.org/1999/xlink" width="216.6015625" height="200"><path d="M1020.15915 0.000853H160.682533A82.261265 82.261265 0 0 0 78.421268 82.262118v859.476617c0 45.482629 36.778636 82.261265 82.261265 82.261265h859.476617a82.261265 82.261265 0 0 0 82.261265-82.261265V82.262118A82.261265 82.261265 0 0 0 1020.15915 0.000853z m0 941.737882H160.682533V82.262118h859.476617v859.476617z" fill="#000000" opacity=".65" p-id="5563"></path><path d="M485.290262 772.608209h356.52237a41.130632 41.130632 0 1 0 0-82.346598H485.290262a41.130632 41.130632 0 1 0 0 82.346598zM485.290262 333.653909h356.52237a41.130632 41.130632 0 1 0 0-82.261265H485.290262a41.130632 41.130632 0 1 0 0 82.346598zM485.290262 553.131059h356.52237a41.130632 41.130632 0 1 0 0-82.261265H485.290262a41.130632 41.130632 0 1 0 0 82.261265z" fill="#000000" opacity=".65" p-id="5564"></path><path d="M340.479716 732.928243m-85.333262 0a85.333262 85.333262 0 1 0 170.666524 0 85.333262 85.333262 0 1 0-170.666524 0Z" fill="#000000" opacity=".65" p-id="5565"></path><path d="M340.479716 294.059275m-85.333262 0a85.333262 85.333262 0 1 0 170.666524 0 85.333262 85.333262 0 1 0-170.666524 0Z" fill="#000000" opacity=".65" p-id="5566"></path><path d="M340.479716 513.536425m-85.333262 0a85.333262 85.333262 0 1 0 170.666524 0 85.333262 85.333262 0 1 0-170.666524 0Z" fill="#000000" opacity=".65" p-id="5567"></path></svg>