<?xml version="1.0" standalone="no"?><!DOCTYPE svg PUBLIC "-//W3C//DTD SVG 1.1//EN" "http://www.w3.org/Graphics/SVG/1.1/DTD/svg11.dtd"><svg t="1718077895411" class="icon" viewBox="0 0 1760 1024" version="1.1" xmlns="http://www.w3.org/2000/svg" p-id="3144" xmlns:xlink="http://www.w3.org/1999/xlink" width="343.75" height="200"><path d="M1292.22576 960.277858h-1066.975398v-29.638205h1065.493487c17.782923 0 31.120116-14.819103 31.120116-31.120116V60.758321c0-17.782923-14.819103-31.120116-31.120116-31.120116H71.131693C53.34877 29.638205 40.011577 44.457308 40.011577 60.758321v340.839364h-29.638205v-340.839364C10.373372 28.156295 37.047757 0 71.131693 0h1221.094067c34.083936 0 60.758321 28.156295 60.758321 60.758321v838.761216c0 34.083936-28.156295 60.758321-60.758321 60.758321zM1701.232996 829.869754c-8.891462 0-19.264834-2.963821-26.674385-7.409551l-257.852388-136.335746V266.743849l259.334298-128.926193c17.782923-8.891462 40.011577-7.409551 56.31259 2.96382 17.782923 10.373372 28.156295 29.638205 28.156296 48.903039v582.390738c0 20.746744-10.373372 40.011577-28.156296 50.38495-10.373372 4.445731-20.746744 7.409551-31.120115 7.409551z m-13.337193-32.602026c8.891462 4.445731 19.264834 4.445731 28.156295-1.48191 8.891462-5.927641 13.337192-14.819103 13.337193-25.192475V189.684515c0-10.373372-4.445731-19.264834-13.337193-23.710564-8.891462-5.927641-19.264834-5.927641-28.156295-1.48191l-243.033285 121.516642v383.814761l243.033285 127.444284z" fill="#009CFF" p-id="3145"></path><path d="M0 1024V453.464544l494.958032 286.008683L0 1024zM29.638205 503.849493v468.283647l406.043416-234.141823L29.638205 503.849493z" fill="#009CFF" p-id="3146"></path></svg>