<?xml version="1.0" standalone="no"?><!DOCTYPE svg PUBLIC "-//W3C//DTD SVG 1.1//EN" "http://www.w3.org/Graphics/SVG/1.1/DTD/svg11.dtd"><svg t="1716535943715" class="icon" viewBox="0 0 1024 1024" version="1.1" xmlns="http://www.w3.org/2000/svg" p-id="6812" xmlns:xlink="http://www.w3.org/1999/xlink" width="200" height="200"><path d="M512 64c247.424 0 448 200.576 448 448S759.424 960 512 960 64 759.424 64 512 264.576 64 512 64z m103.223 572H408.801c-60.036 0-119.732 59.767-130.179 134.223l-6.662 46.634C338.002 868.928 421.372 900 512 900c90.63 0 174.003-31.074 240.046-83.148l-6.669-46.686c-10.327-73.657-68.93-132.97-128.353-134.148l-1.801-0.018zM512 124c-214.286 0-388 173.714-388 388 0 97.103 35.67 185.874 94.622 253.926l0.231-1.572a71941 71941 0 0 0 0.359-2.523c14.226-101.387 96.031-184.16 186.835-185.806l2.754-0.025h206.422c91.9 0 175.214 83.422 189.565 185.779l0.598 4.138C864.333 697.867 900 609.098 900 512c0-214.286-173.714-388-388-388z m0 86c88.366 0 160 71.634 160 160s-71.634 160-160 160-160-71.634-160-160 71.634-160 160-160z m0 60c-55.228 0-100 44.772-100 100s44.772 100 100 100 100-44.772 100-100-44.772-100-100-100z" fill="#000000" p-id="6813"></path></svg>