<?xml version="1.0" standalone="no"?><!DOCTYPE svg PUBLIC "-//W3C//DTD SVG 1.1//EN" "http://www.w3.org/Graphics/SVG/1.1/DTD/svg11.dtd"><svg t="1718092158661" class="icon" viewBox="0 0 1137 1024" version="1.1" xmlns="http://www.w3.org/2000/svg" p-id="10351" xmlns:xlink="http://www.w3.org/1999/xlink" width="222.0703125" height="200"><path d="M942.933333 946.119111h147.911111c11.377778 0 22.755556 11.377778 22.755556 22.755556v22.755555c0 11.377778-11.377778 22.755556-22.755556 22.755556H44.088889c-11.377778 0-22.755556-11.377778-22.755556-22.755556v-22.755555c0-11.377778 11.377778-22.755556 22.755556-22.755556h147.911111v-870.4c5.688889-39.822222 39.822222-73.955556 79.644444-73.955555h597.333334c39.822222 0 73.955556 34.133333 73.955555 73.955555v870.4z m-671.288889 0h597.333334v-870.4h-597.333334v870.4z m125.155556-722.488889h73.955556c11.377778 0 22.755556 11.377778 22.755555 22.755556v73.955555c0 11.377778-11.377778 22.755556-22.755555 22.755556h-73.955556c-11.377778 0-22.755556-11.377778-22.755556-22.755556v-68.266666c-5.688889-17.066667 5.688889-28.444444 22.755556-28.444445z m0 227.555556h73.955556c11.377778 0 22.755556 11.377778 22.755555 22.755555v73.955556c0 11.377778-11.377778 22.755556-22.755555 22.755555h-73.955556c-11.377778 0-22.755556-11.377778-22.755556-22.755555v-73.955556c-5.688889-11.377778 5.688889-22.755556 22.755556-22.755555z m0 221.866666h73.955556c11.377778 0 22.755556 11.377778 22.755555 22.755556v73.955556c0 11.377778-11.377778 22.755556-22.755555 22.755555h-73.955556c-11.377778 0-22.755556-11.377778-22.755556-22.755555v-73.955556c-5.688889-11.377778 5.688889-22.755556 22.755556-22.755556z m273.066667-449.422222h73.955555c11.377778 0 22.755556 11.377778 22.755556 22.755556v73.955555c0 11.377778-11.377778 22.755556-22.755556 22.755556h-73.955555c-11.377778 0-22.755556-11.377778-22.755556-22.755556v-68.266666c-5.688889-17.066667 5.688889-28.444444 22.755556-28.444445z m0 227.555556h73.955555c11.377778 0 22.755556 11.377778 22.755556 22.755555v73.955556c0 11.377778-11.377778 22.755556-22.755556 22.755555h-73.955555c-11.377778 0-22.755556-11.377778-22.755556-22.755555v-73.955556c-5.688889-11.377778 5.688889-22.755556 22.755556-22.755555z m0 221.866666h73.955555c11.377778 0 22.755556 11.377778 22.755556 22.755556v73.955556c0 11.377778-11.377778 22.755556-22.755556 22.755555h-73.955555c-11.377778 0-22.755556-11.377778-22.755556-22.755555v-73.955556c-5.688889-11.377778 5.688889-22.755556 22.755556-22.755556z" fill="#3296FA" p-id="10352"></path></svg>